<?xml version="1.0" standalone="no"?>
<!DOCTYPE svg PUBLIC "-//W3C//DTD SVG 20010904//EN"
 "http://www.w3.org/TR/2001/REC-SVG-20010904/DTD/svg10.dtd">
<svg version="1.0" xmlns="http://www.w3.org/2000/svg"
 width="1000.000000pt" height="995.000000pt" viewBox="0 0 1000.000000 995.000000"
 preserveAspectRatio="xMidYMid meet">
<metadata>
Created by potrace 1.16, written by Peter Selinger 2001-2019
</metadata>
<g transform="translate(0.000000,995.000000) scale(0.100000,-0.100000)"
fill="#000000" stroke="none">
<path d="M4860 7693 c-106 -8 -290 -46 -402 -83 -635 -209 -1095 -735 -1220
-1397 -29 -157 -32 -456 -4 -608 49 -270 104 -404 353 -853 173 -314 713
-1288 1199 -2164 115 -208 211 -378 214 -378 3 0 99 170 214 378 486 876 1026
1850 1199 2164 249 449 304 583 353 853 28 152 25 451 -4 608 -151 802 -793
1394 -1602 1476 -97 11 -202 12 -300 4z m309 -1079 c259 -63 471 -274 535
-535 23 -93 21 -256 -4 -353 -115 -449 -631 -675 -1040 -454 -241 129 -380
362 -380 636 0 127 18 208 70 317 91 189 261 330 466 385 89 24 262 26 353 4z"/>
</g>
</svg>
